<?xml version="1.0" encoding="utf-8"?>
<!-- Generator: Adobe Illustrator 26.2.1, SVG Export Plug-In . SVG Version: 6.00 Build 0)  -->
<svg version="1.1" id="Calque_1" xmlns="http://www.w3.org/2000/svg" xmlns:xlink="http://www.w3.org/1999/xlink" x="0px" y="0px"
	 viewBox="0 0 400 400" style="enable-background:new 0 0 400 400;" xml:space="preserve">
<style type="text/css">
	.st0{fill:#781735;}
</style>
<path class="st0" d="M308.2,195.68c24.64-15.33,42.32-41.33,45.91-72.4c6.26-54.11-32.54-103.05-86.65-109.31
	c-19.24-2.22-37.81,1.27-54.06,9.1C195.88,9.78,174.25,1.65,150.75,0.89V0.79H37.39V400h111.84
	c-31.58-31.6-48.96-76.79-43.43-124.62c8.79-76.02,70.84-133.37,146.73-134.16c2.83-9.74,4.36-20.03,4.36-30.68
	c0-24.59-8.09-47.3-21.76-65.6c6.63-2.08,13.68-3.2,21-3.2c38.77,0,70.2,31.43,70.2,70.2c0,38.77-30.63,70.2-69.4,70.2
	c0,0-0.01,0.01-0.01,0.01c-36.09-0.33-68.93,17.55-88.71,45.8c-9.85,15.21-16.11,33.22-18.34,52.51
	c-1.21,10.5-0.84,20.81,0.88,30.71v-1.62c8.58,44.77,45.31,80.76,92.99,86.28c58.81,6.8,112.01-35.36,118.81-94.18
	C367.67,257.3,344.93,216.15,308.2,195.68z"/>
</svg>
