<svg xmlns="http://www.w3.org/2000/svg" version="1.1" xmlns:xlink="http://www.w3.org/1999/xlink" xmlns:svgjs="http://svgjs.com/svgjs" width="960" height="540" preserveAspectRatio="none" viewBox="0 0 960 540"><g mask="url(&quot;#SvgjsMask1367&quot;)" fill="none"><rect width="960" height="540" x="0" y="0" fill="rgba(6, 15, 34, 1)"></rect><g transform="translate(0, 0)" stroke-linecap="round"><path d="M112.5 106.975 L112.5 133.225" stroke-width="26.25" stroke="rgba(38, 88, 205, 1)"></path><path d="M112.5 172.6 L112.5 303.85" stroke-width="26.25" stroke="rgba(60, 211, 175, 1)"></path><path d="M112.5 343.225 L112.5 433.015" stroke-width="26.25" stroke="rgba(205, 38, 88, 1)"></path><path d="M147.5 243.695 L147.5 296.305" stroke-width="26.25" stroke="rgba(38, 88, 205, 1)"></path><path d="M182.5 184.065 L182.5 210.315" stroke-width="26.25" stroke="rgba(38, 88, 205, 1)"></path><path d="M182.5 249.69 L182.5 275.94" stroke-width="26.25" stroke="rgba(38, 88, 205, 1)"></path><path d="M182.5 315.315 L182.5 355.935" stroke-width="26.25" stroke="rgba(38, 88, 205, 1)"></path><path d="M217.5 89.905 L217.5 273.655" stroke-width="26.25" stroke="rgba(38, 88, 205, 1)"></path><path d="M217.5 313.03 L217.5 339.28" stroke-width="26.25" stroke="rgba(38, 88, 205, 1)"></path><path d="M217.5 378.655 L217.5 450.105" stroke-width="26.25" stroke="rgba(205, 38, 88, 1)"></path><path d="M252.5 209.935 L252.5 236.185" stroke-width="26.25" stroke="rgba(60, 211, 175, 1)"></path><path d="M252.5 275.56 L252.5 330.065" stroke-width="26.25" stroke="rgba(60, 211, 175, 1)"></path><path d="M287.5 80.315 L287.5 459.685" stroke-width="26.25" stroke="rgba(60, 211, 175, 1)"></path><path d="M322.5 210.345 L322.5 236.595" stroke-width="26.25" stroke="rgba(38, 88, 205, 1)"></path><path d="M322.5 275.97 L322.5 329.655" stroke-width="26.25" stroke="rgba(205, 38, 88, 1)"></path><path d="M357.5 99.625 L357.5 283.375" stroke-width="26.25" stroke="rgba(205, 38, 88, 1)"></path><path d="M357.5 322.75 L357.5 440.375" stroke-width="26.25" stroke="rgba(205, 38, 88, 1)"></path><path d="M392.5 147.715 L392.5 226.465" stroke-width="26.25" stroke="rgba(60, 211, 175, 1)"></path><path d="M392.5 265.84000000000003 L392.5 318.34000000000003" stroke-width="26.25" stroke="rgba(60, 211, 175, 1)"></path><path d="M392.5 357.71500000000003 L392.5 392.275" stroke-width="26.25" stroke="rgba(60, 211, 175, 1)"></path><path d="M427.5 173.765 L427.5 226.265" stroke-width="26.25" stroke="rgba(60, 211, 175, 1)"></path><path d="M427.5 265.64 L427.5 291.89" stroke-width="26.25" stroke="rgba(205, 38, 88, 1)"></path><path d="M427.5 331.265 L427.5 366.235" stroke-width="26.25" stroke="rgba(38, 88, 205, 1)"></path><path d="M462.5 239.775 L462.5 300.235" stroke-width="26.25" stroke="rgba(60, 211, 175, 1)"></path><path d="M497.5 189.055 L497.5 215.305" stroke-width="26.25" stroke="rgba(205, 38, 88, 1)"></path><path d="M497.5 254.68 L497.5 280.93" stroke-width="26.25" stroke="rgba(38, 88, 205, 1)"></path><path d="M497.5 320.305 L497.5 350.945" stroke-width="26.25" stroke="rgba(205, 38, 88, 1)"></path><path d="M532.5 254.465 L532.5 285.545" stroke-width="26.25" stroke="rgba(205, 38, 88, 1)"></path><path d="M567.5 59.205 L567.5 347.955" stroke-width="26.25" stroke="rgba(205, 38, 88, 1)"></path><path d="M567.5 387.33 L567.5 413.58" stroke-width="26.25" stroke="rgba(38, 88, 205, 1)"></path><path d="M567.5 452.955 L567.5 480.795" stroke-width="26.25" stroke="rgba(38, 88, 205, 1)"></path><path d="M602.5 61.035 L602.5 218.535" stroke-width="26.25" stroke="rgba(60, 211, 175, 1)"></path><path d="M602.5 257.90999999999997 L602.5 478.975" stroke-width="26.25" stroke="rgba(38, 88, 205, 1)"></path><path d="M637.5 146.915 L637.5 225.665" stroke-width="26.25" stroke="rgba(60, 211, 175, 1)"></path><path d="M637.5 265.03999999999996 L637.5 393.085" stroke-width="26.25" stroke="rgba(38, 88, 205, 1)"></path><path d="M672.5 137.405 L672.5 294.905" stroke-width="26.25" stroke="rgba(38, 88, 205, 1)"></path><path d="M672.5 334.28 L672.5 402.605" stroke-width="26.25" stroke="rgba(205, 38, 88, 1)"></path><path d="M707.5 210.935 L707.5 329.065" stroke-width="26.25" stroke="rgba(60, 211, 175, 1)"></path><path d="M742.5 171.375 L742.5 197.625" stroke-width="26.25" stroke="rgba(60, 211, 175, 1)"></path><path d="M742.5 237 L742.5 263.25" stroke-width="26.25" stroke="rgba(60, 211, 175, 1)"></path><path d="M742.5 302.625 L742.5 368.625" stroke-width="26.25" stroke="rgba(38, 88, 205, 1)"></path><path d="M777.5 180.735 L777.5 359.265" stroke-width="26.25" stroke="rgba(38, 88, 205, 1)"></path><path d="M812.5 239.585 L812.5 300.415" stroke-width="26.25" stroke="rgba(60, 211, 175, 1)"></path><path d="M847.5 130.66500000000002 L847.5 288.165" stroke-width="26.25" stroke="rgba(60, 211, 175, 1)"></path><path d="M847.5 327.54 L847.5 409.335" stroke-width="26.25" stroke="rgba(205, 38, 88, 1)"></path></g></g><defs><mask id="SvgjsMask1367"><rect width="960" height="540" fill="#ffffff"></rect></mask></defs></svg>