<svg width="32" height="32" viewBox="0 0 32 32" fill="none" xmlns="http://www.w3.org/2000/svg">
<path fill-rule="evenodd" clip-rule="evenodd" d="M5.33337 9.90474V22.0952C5.33337 22.9035 5.65446 23.6787 6.226 24.2502C6.79754 24.8217 7.57271 25.1428 8.38099 25.1428H23.6191C24.4274 25.1428 25.2025 24.8217 25.7741 24.2502C26.3456 23.6787 26.6667 22.9035 26.6667 22.0952V9.90474C26.6667 9.09646 26.3456 8.32128 25.7741 7.74974C25.2025 7.1782 24.4274 6.85712 23.6191 6.85712H8.38099C7.57271 6.85712 6.79754 7.1782 6.226 7.74974C5.65446 8.32128 5.33337 9.09646 5.33337 9.90474V9.90474Z" stroke="black" stroke-width="1.52381" stroke-linecap="round" stroke-linejoin="round"/>
<path d="M8.38098 11.4285L16 16L23.6191 11.4285" stroke="black" stroke-width="1.52381" stroke-linecap="round" stroke-linejoin="round"/>
</svg>
